<?xml version="1.0" encoding="utf-8"?>
<!-- Generator: Adobe Illustrator 23.0.4, SVG Export Plug-In . SVG Version: 6.00 Build 0)  -->
<svg version="1.1" id="Ebene_1" xmlns="http://www.w3.org/2000/svg" xmlns:xlink="http://www.w3.org/1999/xlink" x="0px" y="0px"
	 viewBox="0 0 500 107" style="enable-background:new 0 0 500 107;" xml:space="preserve">
<style type="text/css">
	.st0{fill-rule:evenodd;clip-rule:evenodd;fill:#1A1918;}
</style>
<title>Slice 1</title>
<desc>Created with Sketch.</desc>
<g id="Page-1">
	<g transform="translate(1.000000, 95.000000)">
		<path id="Fill-1" class="st0" d="M148.3-17.4c0,9.3-2.1,16.3-10.6,22.9l-9.2-7.8c4.8-4.5,6.3-8,6.5-13.5l-7.3,0v-20.8h20.6V-17.4z
			"/>
		<polygon id="Fill-3" class="st0" points="127.8,-50.4 148.3,-50.4 148.3,-71.2 127.8,-71.2 		"/>
		<polygon id="Fill-5" class="st0" points="0.3,-15.7 0.3,-81.6 49.8,-81.6 49.8,-65.9 20.2,-65.9 20.2,-54.3 47.6,-54.3 
			47.6,-38.7 20.2,-38.7 20.2,-15.7 		"/>
		<polygon id="Fill-6" class="st0" points="96,-15.7 96,-41.4 76.8,-41.4 76.8,-15.7 56.5,-15.7 56.5,-81.6 76.8,-81.6 76.8,-58.4 
			96,-58.4 96,-81.6 116.4,-81.6 116.4,-15.7 		"/>
		<path id="Fill-7" class="st0" d="M187.8-51.7c3.9,0,6.8-0.6,8.4-1.9c1.5-1.2,2.1-3.1,2.1-5.2c0-2.1-0.6-3.9-2.1-5.2
			c-1.5-1.4-3.9-1.9-8.1-1.9h-8.1v14.2H187.8z M159.9-15.7v-65.9H188c13,0,18.6,1.4,22.5,4c5.8,3.8,8.6,10.1,8.6,18.3
			c0,7.6-3,14.2-8.3,18.1c-4.6,3.3-10.5,4.9-20.8,4.9h-10v20.6H159.9z"/>
		<polygon id="Fill-8" class="st0" points="254.4,-79.2 254.4,-74.9 258.8,-74.9 258.8,-72.6 254.4,-72.6 254.4,-66.1 251.3,-66.1 
			251.3,-81.6 259.2,-81.6 259.2,-79.2 		"/>
		<path id="Fill-9" class="st0" d="M267.2-71.3h-0.9c-2.2,0-2.9,0.7-2.9,1.8c0,0.9,0.5,1.5,1.5,1.5c0.7,0,1.5-0.4,2.2-1V-71.3z
			 M267.8-66.1l-0.2-1.2c-1,0.8-2,1.4-3.5,1.4c-2.3,0-3.5-1.1-3.5-3.3c0-2.4,1.9-4,5.9-4h0.7V-74c0-1.2-0.7-1.7-2.1-1.7
			c-1.2,0-2.4,0.3-3.5,0.7l-0.4-1.8c1.4-0.6,2.9-1,4.6-1c2.9,0,4.3,1.4,4.3,3.6v8.2H267.8z"/>
		<path id="Fill-10" class="st0" d="M277.3-65.9c-3,0-4.6-1.9-4.6-5.8c0-3.6,1.9-6.1,4.8-6.1c1.5,0,2.6,0.5,3.4,1.4l-1,1.5
			c-0.5-0.5-1.2-0.8-1.9-0.8c-1.3,0-2.2,1.2-2.2,3.6c0,2.8,0.8,3.9,2.1,3.9c0.9,0,1.7-0.3,2.4-1l0.9,1.5
			C280.3-66.6,279.1-65.9,277.3-65.9"/>
		<path id="Fill-11" class="st0" d="M292.7-66.1h-2.9c0-2.3,0.1-4.7,0.1-6c0-2.7-0.5-3.4-1.6-3.4c-0.6,0-1.3,0.3-2.1,0.9v8.4h-3
			v-16.2h3v5.7c0.8-0.7,1.9-1.2,3.1-1.2c2.3,0,3.5,1.4,3.5,5.2C292.8-71.3,292.7-68.7,292.7-66.1"/>
		<path id="Fill-12" class="st0" d="M305.5-66.1h-2.9c0-2.3,0.1-4.7,0.1-6c0-2.7-0.5-3.4-1.6-3.4c-0.6,0-1.3,0.3-2.1,0.9v8.4h-3
			v-16.2h3v5.7c0.8-0.7,1.9-1.2,3.1-1.2c2.3,0,3.5,1.4,3.5,5.2C305.6-71.3,305.5-68.7,305.5-66.1"/>
		<path id="Fill-13" class="st0" d="M313.5-75.7c-1.4,0-2.3,0.9-2.3,3.5c0,3.2,0.8,4.1,2.3,4.1c1.3,0,2.3-0.9,2.3-3.6
			C315.8-74.8,315-75.7,313.5-75.7 M313.3-65.9c-3.3,0-5.1-1.6-5.1-5.8c0-4.2,2.1-6.2,5.5-6.2c3.3,0,5.1,1.6,5.1,5.8
			C318.9-67.9,316.7-65.9,313.3-65.9"/>
		<path id="Fill-14" class="st0" d="M325.5-65.9c-3,0-4.6-1.9-4.6-5.8c0-3.6,1.9-6.1,4.8-6.1c1.5,0,2.6,0.5,3.4,1.4l-1,1.5
			c-0.5-0.5-1.2-0.8-1.9-0.8c-1.3,0-2.2,1.2-2.2,3.6c0,2.8,0.8,3.9,2.1,3.9c0.9,0,1.7-0.3,2.4-1l0.9,1.5
			C328.5-66.6,327.2-65.9,325.5-65.9"/>
		<path id="Fill-15" class="st0" d="M340.8-66.1h-2.9c0-2.3,0.1-4.7,0.1-6c0-2.7-0.5-3.4-1.6-3.4c-0.6,0-1.3,0.3-2.1,0.9v8.4h-3
			v-16.2h3v5.7c0.8-0.7,1.9-1.2,3.1-1.2c2.3,0,3.5,1.4,3.5,5.2C340.9-71.3,340.8-68.7,340.8-66.1"/>
		<path id="Fill-16" class="st0" d="M346.9-65.9c-1.3,0-2.4-0.3-3.6-0.9l0.3-1.5c1.3,0.3,2.1,0.4,2.8,0.4c1.5,0,2.1-0.6,2.1-1.3
			c0-0.8-0.4-1.1-2-1.7c-2.2-0.8-3-1.7-3-3.4c0-2.1,1.7-3.5,4.2-3.5c1,0,2,0.2,3.2,0.8l-0.3,1.5c-1-0.2-1.6-0.3-2.3-0.3
			c-1.2,0-1.7,0.5-1.7,1.2c0,0.7,0.4,1,2,1.6c2.2,0.8,3.1,1.8,3.1,3.5C351.6-67.4,349.9-65.9,346.9-65.9"/>
		<path id="Fill-17" class="st0" d="M358-65.9c-3,0-4.6-1.9-4.6-5.8c0-3.6,1.9-6.1,4.8-6.1c1.5,0,2.6,0.5,3.4,1.4l-1,1.5
			c-0.5-0.5-1.2-0.8-1.9-0.8c-1.3,0-2.2,1.2-2.2,3.6c0,2.8,0.8,3.9,2.1,3.9c0.9,0,1.7-0.3,2.4-1l0.9,1.5
			C361-66.6,359.7-65.9,358-65.9"/>
		<path id="Fill-18" class="st0" d="M373.4-66.1h-2.9c0-2.3,0.1-4.7,0.1-6c0-2.7-0.5-3.4-1.6-3.4c-0.6,0-1.3,0.3-2.1,0.9v8.4h-3
			v-16.2h3v5.7c0.8-0.7,1.9-1.2,3.1-1.2c2.3,0,3.5,1.4,3.5,5.2C373.4-71.3,373.4-68.7,373.4-66.1"/>
		<path id="Fill-19" class="st0" d="M383.8-66.1l-0.2-1.2c-1,0.9-2.2,1.5-3.5,1.5c-2.3,0-3.5-1.5-3.5-5.2c0-1.4,0.1-4,0.1-6.5h3
			c0,2.3-0.1,4.6-0.1,6c0,2.7,0.5,3.3,1.6,3.3c0.6,0,1.4-0.4,2.1-0.9v-8.4h3v11.5H383.8z"/>
		<path id="Fill-20" class="st0" d="M391.8-65.9c-1.5,0-2.3-0.5-2.3-2.3v-14.1h3v12.9c0,1.3,0.2,1.5,0.8,1.5c0.2,0,0.4,0,0.6,0
			l0.1,1.7C393.4-66,392.7-65.9,391.8-65.9"/>
		<path id="Fill-21" class="st0" d="M402.2-73.1c0-1.8-0.6-2.7-1.9-2.7c-1.3,0-2,1.1-2.1,2.8L402.2-73.1L402.2-73.1z M398.3-71.3
			v0.2c0,2.1,0.9,3,2.6,3c1,0,2.4-0.2,3.7-0.7l0.4,1.7c-1.4,0.7-3,1.2-4.7,1.2c-3,0-5-1.5-5-5.7c0-4.1,2-6.3,5.2-6.3
			c3,0,4.9,1.6,4.6,6.6H398.3z"/>
		<path id="Fill-22" class="st0" d="M418-79.3h-0.9v5.7h0.9c2,0,3-1.1,3-2.9C421-78.3,420.2-79.3,418-79.3 M417.7-71.3h-0.6v5.2H414
			v-15.5c1.4,0,2.9,0,4.5,0c4.2,0,5.7,1.9,5.7,4.9C424.2-73.6,422.5-71.3,417.7-71.3"/>
		<path id="Fill-23" class="st0" d="M431-75.7c-1.4,0-2.3,0.9-2.3,3.5c0,3.2,0.8,4.1,2.3,4.1c1.3,0,2.3-0.9,2.3-3.6
			C433.3-74.8,432.5-75.7,431-75.7 M430.8-65.9c-3.3,0-5.1-1.6-5.1-5.8c0-4.2,2.1-6.2,5.5-6.2c3.3,0,5.1,1.6,5.1,5.8
			C436.3-67.9,434.2-65.9,430.8-65.9"/>
		<path id="Fill-24" class="st0" d="M442-65.9c-2.1,0-2.9-0.8-2.9-3v-6.6h-1.4v-2.1h1.6c0.3-1,0.5-2.1,0.7-3.3h2.2v3.3h2.5v2.1h-2.5
			v5.9c0,1.2,0.3,1.5,1,1.5c0.4,0,0.8,0,1.6-0.2l0.2,1.7C443.8-66.1,442.9-65.9,442-65.9"/>
		<path id="Fill-25" class="st0" d="M449.9-65.9c-1.3,0-2.4-0.3-3.6-0.9l0.3-1.5c1.3,0.3,2.1,0.4,2.8,0.4c1.5,0,2.1-0.6,2.1-1.3
			c0-0.8-0.4-1.1-2-1.7c-2.2-0.8-3-1.7-3-3.4c0-2.1,1.7-3.5,4.2-3.5c1,0,2,0.2,3.2,0.8l-0.3,1.5c-1-0.2-1.6-0.3-2.3-0.3
			c-1.2,0-1.7,0.5-1.7,1.2c0,0.7,0.4,1,2,1.6c2.2,0.8,3.1,1.8,3.1,3.5C454.6-67.4,452.9-65.9,449.9-65.9"/>
		<path id="Fill-26" class="st0" d="M463.4-75.5c-0.4-0.1-0.9-0.2-1.4-0.2c-1.5,0-2.5,1.2-2.5,3.9c0,2.4,0.7,3.7,1.9,3.7
			c0.5,0,1.3-0.3,2-1V-75.5z M463.9-66.1l-0.2-1.2c-1,0.8-2,1.4-3.2,1.4c-2.7,0-4-2.4-4-5.5c0-4.6,2.5-6.5,5.7-6.5
			c0.5,0,1,0,1.3,0.1v-4.6h3v16.2H463.9z"/>
		<path id="Fill-27" class="st0" d="M475.5-71.3h-0.9c-2.2,0-2.9,0.7-2.9,1.8c0,0.9,0.5,1.5,1.5,1.5c0.7,0,1.5-0.4,2.2-1V-71.3z
			 M476.2-66.1l-0.2-1.2c-1,0.8-2,1.4-3.5,1.4c-2.3,0-3.5-1.1-3.5-3.3c0-2.4,1.9-4,5.9-4h0.7V-74c0-1.2-0.7-1.7-2.1-1.7
			c-1.2,0-2.4,0.3-3.5,0.7l-0.4-1.8c1.4-0.6,2.9-1,4.6-1c2.9,0,4.3,1.4,4.3,3.6v8.2H476.2z"/>
		<path id="Fill-28" class="st0" d="M497.6-66.1h-2.9c0-2.3,0.1-4.7,0.1-6c0-2.7-0.5-3.4-1.5-3.4c-0.6,0-1.4,0.4-2.2,1
			c0.1,0.4,0.1,0.9,0.1,1.7v6.6h-2.9v-6c0-2.7-0.5-3.4-1.5-3.4c-0.5,0-1.3,0.4-2.1,0.9v8.4h-3v-11.5h2.4l0.2,1.2
			c0.9-0.8,2.1-1.5,3.4-1.5c1.4,0,2.4,0.7,2.8,1.6c1.1-1,2.3-1.6,3.7-1.6c2.2,0,3.4,1.5,3.4,5.2C497.7-71.2,497.6-68.6,497.6-66.1"
			/>
		<path id="Fill-29" class="st0" d="M256.9-40.7c-3.7,0-5.5-1.5-5.5-5.5v-10.2h3.1v9.9c0,2.6,0.8,3.6,2.7,3.6c1.7,0,2.7-0.8,2.7-3.4
			v-10.1h3v9.9C262.9-42.3,260.4-40.7,256.9-40.7"/>
		<path id="Fill-30" class="st0" d="M275.9-40.9H273c0-2.3,0.1-4.7,0.1-6c0-2.7-0.5-3.3-1.6-3.3c-0.6,0-1.4,0.4-2.1,0.9v8.4h-3
			v-11.5h2.4l0.2,1.2c1-0.9,2.2-1.5,3.5-1.5c2.3,0,3.5,1.5,3.5,5.2C276-46,275.9-43.4,275.9-40.9"/>
		<path id="Fill-31" class="st0" d="M279.3-40.9h3v-11.5h-3V-40.9z M280.7-53.9c-1.4,0-1.8-0.4-1.8-1.5c0-1.1,0.4-1.5,1.8-1.5
			c1.4,0,1.7,0.3,1.7,1.5C282.5-54.3,282.1-53.9,280.7-53.9L280.7-53.9z"/>
		<path id="Fill-32" class="st0" d="M291.4-40.9h-3.8l-3.3-11.5h3.2l1.9,6.5l0.5,2.3c1-3.1,1.6-6,1.9-8.8h3
			C294.1-48.4,293-44.5,291.4-40.9"/>
		<path id="Fill-33" class="st0" d="M303.1-47.9c0-1.8-0.6-2.7-1.9-2.7c-1.3,0-2,1.1-2.1,2.8L303.1-47.9L303.1-47.9z M299.2-46.1
			v0.2c0,2.1,0.9,3,2.6,3c1,0,2.4-0.2,3.7-0.7l0.4,1.7c-1.4,0.7-3,1.2-4.7,1.2c-3,0-5-1.5-5-5.7c0-4.1,2-6.3,5.2-6.3
			c3,0,4.9,1.6,4.6,6.6H299.2z"/>
		<path id="Fill-34" class="st0" d="M315-49.8c-0.5-0.1-0.8-0.2-1-0.2c-0.6,0-1.2,0.4-2.2,1.7v7.3h-3v-11.5h2.4l0.2,1.8
			c1.2-1.5,1.9-2,2.8-2c0.3,0,0.7,0.1,1.1,0.3L315-49.8z"/>
		<path id="Fill-35" class="st0" d="M320.1-40.7c-1.3,0-2.4-0.3-3.6-0.9l0.3-1.5c1.3,0.3,2.1,0.4,2.8,0.4c1.5,0,2.1-0.6,2.1-1.3
			c0-0.8-0.4-1.1-2-1.7c-2.2-0.8-3-1.7-3-3.4c0-2.1,1.7-3.5,4.2-3.5c1,0,2,0.2,3.2,0.8l-0.3,1.5c-1-0.2-1.6-0.3-2.3-0.3
			c-1.2,0-1.7,0.5-1.7,1.2c0,0.7,0.4,1,2,1.6c2.2,0.8,3.1,1.8,3.1,3.5C324.8-42.2,323.1-40.7,320.1-40.7"/>
		<path id="Fill-36" class="st0" d="M327.3-40.9h3v-11.5h-3V-40.9z M328.8-53.9c-1.4,0-1.8-0.4-1.8-1.5c0-1.1,0.4-1.5,1.8-1.5
			c1.4,0,1.7,0.3,1.7,1.5C330.5-54.3,330.2-53.9,328.8-53.9L328.8-53.9z"/>
		<path id="Fill-37" class="st0" d="M336.7-40.7c-2.1,0-2.9-0.8-2.9-3v-6.6h-1.4v-2.1h1.6c0.3-1,0.5-2.1,0.7-3.3h2.2v3.3h2.5v2.1
			h-2.5v5.9c0,1.2,0.3,1.5,1,1.5c0.4,0,0.8,0,1.6-0.2l0.2,1.7C338.5-40.9,337.6-40.7,336.7-40.7"/>
		<path id="Fill-38" class="st0" d="M342.2-36.8c-0.5,0-1.1-0.2-1.7-0.5V-39c0.3,0,0.9,0.1,1.1,0.1c0.7,0,1.2-0.2,1.6-0.5
			c0.5-0.4,0.7-0.8,0.7-1.3c0-0.5-0.1-1.1-0.5-2.3l-2.8-9.3h3.2l1.8,6.4c0.3,1.1,0.6,2.2,0.5,2.8c0.9-2.7,1.7-6.2,1.9-9.3h3
			C349.2-40.4,345.4-36.8,342.2-36.8"/>
		<path id="Fill-39" class="st0" d="M362.8-50.5c-1.4,0-2.3,0.9-2.3,3.5c0,3.2,0.8,4.1,2.3,4.1c1.3,0,2.3-0.9,2.3-3.6
			C365.1-49.6,364.2-50.5,362.8-50.5 M362.6-40.7c-3.3,0-5.1-1.6-5.1-5.8c0-4.2,2.1-6.2,5.5-6.2c3.3,0,5.1,1.6,5.1,5.8
			C368.1-42.7,366-40.7,362.6-40.7"/>
		<path id="Fill-40" class="st0" d="M376.6-55c-0.5-0.2-0.9-0.3-1.4-0.3c-0.9,0-1.2,0.5-1.2,1.4v1.5h2.1v2.1H374v9.4H371v-9.4h-1.5
			v-2.1h1.5v-1.4c0-2.3,0.9-3.6,3.2-3.6c1.1,0,2.1,0.3,2.7,0.7L376.6-55z"/>
		<path id="Fill-41" class="st0" d="M255.9-28.4c-0.6,2.2-1.4,5-2,7.4h4.1C257.4-23.5,256.7-26.1,255.9-28.4L255.9-28.4z
			 M259.2-15.7c-0.2-0.9-0.4-2.2-0.7-3h-5.1c-0.2,0.9-0.5,2-0.6,3h-3c1.1-5.1,2.7-10.5,4.3-15.5h4.1c1.8,5.3,3.1,10.3,4.4,15.5
			H259.2z"/>
		<path id="Fill-42" class="st0" d="M269.6-25.2c-0.5,0-1.3,0.3-2,1v6.4c0.4,0.2,0.9,0.2,1.4,0.2c1.5,0,2.5-1.2,2.5-3.9
			C271.5-23.9,270.8-25.2,269.6-25.2 M268.8-15.5c-0.3,0-0.8,0-1.2-0.1v3.8h-3v-15.4h2.4l0.2,1.2c0.9-0.8,2-1.4,3.2-1.4
			c2.7,0,4.1,2.5,4.1,5.5C274.5-17.4,272.1-15.5,268.8-15.5"/>
		<path id="Fill-43" class="st0" d="M282.2-25.2c-0.5,0-1.3,0.3-2,1v6.4c0.4,0.2,0.9,0.2,1.4,0.2c1.5,0,2.5-1.2,2.5-3.9
			C284.1-23.9,283.4-25.2,282.2-25.2 M281.4-15.5c-0.3,0-0.8,0-1.2-0.1v3.8h-3v-15.4h2.4l0.2,1.2c0.9-0.8,2-1.4,3.2-1.4
			c2.7,0,4.1,2.5,4.1,5.5C287.1-17.4,284.7-15.5,281.4-15.5"/>
		<path id="Fill-44" class="st0" d="M292-15.5c-1.5,0-2.3-0.5-2.3-2.3v-14.1h3V-19c0,1.3,0.2,1.5,0.8,1.5c0.2,0,0.4,0,0.6,0l0.1,1.7
			C293.6-15.6,292.9-15.5,292-15.5"/>
		<path id="Fill-45" class="st0" d="M296.4-15.7h3v-11.5h-3V-15.7z M297.9-28.7c-1.4,0-1.8-0.4-1.8-1.5c0-1.1,0.4-1.5,1.8-1.5
			c1.4,0,1.7,0.3,1.7,1.5C299.6-29.1,299.3-28.7,297.9-28.7L297.9-28.7z"/>
		<path id="Fill-46" class="st0" d="M309-22.7c0-1.8-0.6-2.7-1.9-2.7c-1.3,0-2,1.1-2.1,2.8L309-22.7L309-22.7z M305.1-20.9v0.2
			c0,2.1,0.9,3,2.6,3c1,0,2.4-0.2,3.7-0.7l0.4,1.7c-1.4,0.7-3,1.2-4.7,1.2c-3,0-5-1.5-5-5.7c0-4.1,2-6.3,5.2-6.3
			c3,0,4.9,1.6,4.6,6.6H305.1z"/>
		<path id="Fill-47" class="st0" d="M321-25.1c-0.4-0.1-0.9-0.2-1.4-0.2c-1.5,0-2.5,1.2-2.5,3.9c0,2.4,0.7,3.7,1.9,3.7
			c0.5,0,1.3-0.3,2-1V-25.1z M321.5-15.7l-0.2-1.2c-1,0.8-2,1.4-3.2,1.4c-2.7,0-4-2.4-4-5.5c0-4.6,2.5-6.5,5.7-6.5
			c0.5,0,1,0,1.3,0.1v-4.6h3v16.2H321.5z"/>
		<path id="Fill-48" class="st0" d="M337.1-15.5c-1.8,0-3.3-0.6-4.6-1.5l0.7-1.6c1.2,0.5,2.5,0.8,3.3,0.8c1.6,0,2.6-0.7,2.6-2
			c0-3-6.5-2.4-6.5-7.3c0-2.7,2.1-4.4,4.9-4.4c1.4,0,2.8,0.4,4.1,1.3l-0.7,1.6c-1-0.4-2-0.6-2.8-0.6c-1.5,0-2.2,0.7-2.2,1.8
			c0,3,6.6,2.5,6.6,7.3C342.5-17.5,340.6-15.5,337.1-15.5"/>
		<path id="Fill-49" class="st0" d="M349-15.5c-3,0-4.6-1.9-4.6-5.8c0-3.6,1.9-6.1,4.8-6.1c1.5,0,2.6,0.5,3.4,1.4l-1,1.5
			c-0.5-0.5-1.2-0.8-1.9-0.8c-1.3,0-2.2,1.2-2.2,3.6c0,2.8,0.8,3.9,2.1,3.9c0.9,0,1.7-0.3,2.4-1l0.9,1.5
			C352-16.2,350.7-15.5,349-15.5"/>
		<path id="Fill-50" class="st0" d="M355.1-15.7h3v-11.5h-3V-15.7z M356.6-28.7c-1.4,0-1.8-0.4-1.8-1.5c0-1.1,0.4-1.5,1.8-1.5
			c1.4,0,1.7,0.3,1.7,1.5C358.3-29.1,358-28.7,356.6-28.7L356.6-28.7z"/>
		<path id="Fill-51" class="st0" d="M367.7-22.7c0-1.8-0.6-2.7-1.9-2.7c-1.3,0-2,1.1-2.1,2.8L367.7-22.7L367.7-22.7z M363.7-20.9
			v0.2c0,2.1,0.9,3,2.6,3c1,0,2.4-0.2,3.7-0.7l0.4,1.7c-1.4,0.7-3,1.2-4.7,1.2c-3,0-5-1.5-5-5.7c0-4.1,2-6.3,5.2-6.3
			c3,0,4.9,1.6,4.6,6.6H363.7z"/>
		<path id="Fill-52" class="st0" d="M382.9-15.7H380c0-2.3,0.1-4.7,0.1-6c0-2.7-0.5-3.3-1.6-3.3c-0.6,0-1.4,0.4-2.1,0.9v8.4h-3
			v-11.5h2.4L376-26c1-0.9,2.2-1.5,3.5-1.5c2.3,0,3.5,1.5,3.5,5.2C383-20.8,382.9-18.2,382.9-15.7"/>
		<path id="Fill-53" class="st0" d="M390.1-15.5c-3,0-4.6-1.9-4.6-5.8c0-3.6,1.9-6.1,4.8-6.1c1.5,0,2.6,0.5,3.4,1.4l-1,1.5
			c-0.5-0.5-1.2-0.8-1.9-0.8c-1.3,0-2.2,1.2-2.2,3.6c0,2.8,0.8,3.9,2.1,3.9c0.9,0,1.7-0.3,2.4-1l0.9,1.5
			C393.1-16.2,391.9-15.5,390.1-15.5"/>
		<path id="Fill-54" class="st0" d="M402.2-22.7c0-1.8-0.6-2.7-1.9-2.7c-1.3,0-2,1.1-2.1,2.8L402.2-22.7L402.2-22.7z M398.3-20.9
			v0.2c0,2.1,0.9,3,2.6,3c1,0,2.4-0.2,3.7-0.7l0.4,1.7c-1.4,0.7-3,1.2-4.7,1.2c-3,0-5-1.5-5-5.7c0-4.1,2-6.3,5.2-6.3
			c3,0,4.9,1.6,4.6,6.6H398.3z"/>
		<path id="Fill-55" class="st0" d="M410.6-15.5c-1.3,0-2.4-0.3-3.6-0.9l0.3-1.5c1.3,0.3,2.1,0.4,2.8,0.4c1.5,0,2.1-0.6,2.1-1.3
			c0-0.8-0.4-1.1-2-1.7c-2.2-0.8-3-1.7-3-3.4c0-2.1,1.7-3.5,4.2-3.5c1,0,2,0.2,3.2,0.8l-0.3,1.5c-1-0.2-1.6-0.3-2.3-0.3
			c-1.2,0-1.7,0.5-1.7,1.2c0,0.7,0.4,1,2,1.6c2.2,0.8,3.1,1.8,3.1,3.5C415.3-17,413.6-15.5,410.6-15.5"/>
	</g>
</g>
</svg>
